<?xml version="1.0" encoding="UTF-8" standalone="no"?>
<svg
   xmlns:dc="http://purl.org/dc/elements/1.1/"
   xmlns:cc="http://creativecommons.org/ns#"
   xmlns:rdf="http://www.w3.org/1999/02/22-rdf-syntax-ns#"
   xmlns:svg="http://www.w3.org/2000/svg"
   xmlns="http://www.w3.org/2000/svg"
   xmlns:sodipodi="http://sodipodi.sourceforge.net/DTD/sodipodi-0.dtd"
   xmlns:inkscape="http://www.inkscape.org/namespaces/inkscape"
   id="splitsvg"
   version="1.1"
   width="550"
   height="250"
   inkscape:version="0.91 r13725"
   sodipodi:docname="cisabLogo.svg">
  <metadata
     id="metadata3344">
    <rdf:RDF>
      <cc:Work
         rdf:about="">
        <dc:format>image/svg+xml</dc:format>
        <dc:type
           rdf:resource="http://purl.org/dc/dcmitype/StillImage" />
        <dc:title></dc:title>
      </cc:Work>
    </rdf:RDF>
  </metadata>
  <defs
     id="defs3342" />
  <sodipodi:namedview
     pagecolor="#ffffff"
     bordercolor="#666666"
     borderopacity="1"
     objecttolerance="10"
     gridtolerance="10"
     guidetolerance="10"
     inkscape:pageopacity="0"
     inkscape:pageshadow="2"
     inkscape:window-width="1366"
     inkscape:window-height="715"
     id="namedview3340"
     showgrid="false"
     inkscape:zoom="0.87391304"
     inkscape:cx="133.25552"
     inkscape:cy="61.162562"
     inkscape:window-x="-8"
     inkscape:window-y="-8"
     inkscape:window-maximized="1"
     inkscape:current-layer="splitsvg"
     fit-margin-top="0"
     fit-margin-left="0"
     fit-margin-right="0"
     fit-margin-bottom="0" />
  <path
     style="fill:#f8faf9;fill-rule:evenodd;stroke:none"
     inkscape:connector-curvature="0"
     d="m 413.64511,49.898412 c -3.35549,0.829989 -3.10874,-2.013294 -3.53869,40.832299 -0.58511,58.469649 -0.58137,59.342639 0.27292,63.210329 9.44585,42.73904 59.83055,58.16309 90.27858,27.63653 25.93542,-26.00084 18.17947,-69.8858 -15.13803,-85.663139 -9.49631,-4.4958 -14.14353,-5.16877 -35.82056,-5.18185 -15.2371,-0.0112 -15.09129,0.004 -16.32693,-1.65999 -0.63932,-0.8599 -0.65615,-1.25247 -0.84682,-18.43183 -0.21684,-19.47306 -0.20376,-19.36464 -2.29744,-20.411473 -1.05057,-0.525289 -14.69873,-0.798214 -16.58303,-0.330876 M 226.448,85.290891 c -25.16337,3.67515 -39.71068,25.656879 -31.43879,47.507759 5.0809,13.42009 14.67069,17.82429 42.05112,19.3179 13.12099,0.71597 15.2801,1.18517 17.98879,3.90321 4.66404,4.68274 3.03583,13.85379 -2.98349,16.79615 -3.59103,1.75532 -12.03864,2.86759 -19.36651,2.5498 -10.21041,-0.44117 -17.45041,-3.46018 -26.18965,-10.91703 -4.6846,-3.99668 -5.18185,-3.83218 -13.63693,4.47149 -8.51865,8.36723 -8.81775,9.44959 -3.78919,13.73602 18.63559,15.89138 50.18468,22.28457 69.83346,14.14914 22.08829,-9.14301 29.06285,-36.31033 14.56601,-56.7405 -4.99305,-7.03438 -8.3934,-8.1859 -25.20637,-8.53173 -15.91568,-0.32901 -20.91994,-1.13283 -27.37669,-4.4042 -8.36162,-4.23596 -7.22131,-14.9324 2.06751,-19.38894 9.78607,-4.69769 20.06751,-3.08256 33.97364,5.33514 5.71274,3.4583 5.81743,3.42465 12.62748,-4.14062 8.01018,-8.89626 8.07374,-9.580439 1.29733,-13.747229 -13.20324,-8.113 -30.39382,-11.9433 -44.41772,-9.89636 m -145.321702,4.38924 c -28.475869,3.43587 -50.332354,31.005109 -46.90209,59.157579 5.568805,45.67953 59.639867,64.9208 91.934822,32.71556 9.05889,-9.03272 9.0402,-9.53745 -0.63745,-18.5926 -8.89064,-8.31488 -8.85513,-8.31114 -14.12857,-1.77027 -16.035321,19.89366 -49.666867,10.64784 -53.035443,-14.58096 -4.129403,-30.91164 34.796154,-46.986209 53.962643,-22.28457 4.13688,5.32953 4.57244,5.20241 12.56206,-3.7088 7.47367,-8.33545 7.56527,-8.72988 3.17603,-13.78835 -6.54087,-7.540979 -17.67101,-13.881829 -28.862827,-16.442839 -2.876936,-0.65988 -14.644519,-1.11788 -18.069175,-0.70475 m 69.887662,0.2991 c -2.11797,1.06179 -2.0675,0.5795 -2.31799,22.716389 -0.12338,10.9675 -0.40939,30.94528 -0.63745,44.39715 -0.59259,34.90271 -0.57763,37.1235 0.24114,38.22268 1.53287,2.05629 1.89553,2.12546 11.18248,2.12546 13.72853,0 12.81816,1.39267 12.34334,-18.88235 -0.1832,-7.77838 -0.48416,-27.95431 -0.66923,-44.83271 -0.18506,-16.8784 -0.4393,-33.24833 -0.56267,-36.377629 l -0.22433,-5.68844 -1.00945,-1.00945 -1.00945,-1.00945 -8.17281,-0.0785 c -6.96148,-0.0673 -8.31863,-0.006 -9.16358,0.41686 m 187.86821,1.06927 c -20.97229,1.72168 -40.09017,17.564449 -46.04219,38.149779 -9.31312,32.2071 13.23315,65.12455 46.63103,68.08 4.7089,0.41687 52.27275,0.42061 54.49541,0.004 2.0432,-0.38322 3.05265,-1.07301 3.81348,-2.60214 1.05245,-2.11985 -0.10468,-54.6973 -1.34033,-60.797 -5.4529,-26.95422 -29.85171,-45.111249 -57.5574,-42.834379 m 10.49642,22.871579 c 11.13574,2.02078 19.78711,9.8085 23.28654,20.96481 l 0.85803,2.73673 -0.0243,16.04654 c -0.0262,17.34199 -0.0355,17.44107 -1.68803,18.2991 -1.53473,0.79448 -32.27252,0.35705 -35.36256,-0.50285 -13.25559,-3.69385 -22.00791,-15.04643 -22.00791,-28.54691 0,-18.45426 16.68959,-32.30617 34.93823,-28.99742 m 120.97337,0.415 c 18.66176,5.21363 27.59914,25.29984 18.81504,42.28105 -11.05909,21.37419 -42.94466,20.69748 -53.15881,-1.12909 -2.49933,-5.34075 -2.54046,-5.66975 -2.83955,-23.09774 -0.2991,-17.32704 -0.29162,-17.42799 1.57586,-18.37762 1.81888,-0.92533 32.12485,-0.64866 35.60746,0.3234"
     id="path0"
     sodipodi:nodetypes="ccccccccscccccsccccccccccccccccccccccccccccscssccccccccsccccccsccscccsccc" />
</svg>
