<?xml version="1.0" encoding="UTF-8" standalone="no"?>
<svg
   xmlns:dc="http://purl.org/dc/elements/1.1/"
   xmlns:cc="http://creativecommons.org/ns#"
   xmlns:rdf="http://www.w3.org/1999/02/22-rdf-syntax-ns#"
   xmlns:svg="http://www.w3.org/2000/svg"
   xmlns="http://www.w3.org/2000/svg"
   xmlns:sodipodi="http://sodipodi.sourceforge.net/DTD/sodipodi-0.dtd"
   xmlns:inkscape="http://www.inkscape.org/namespaces/inkscape"
   id="svg"
   version="1.1"
   width="550"
   height="250"
   viewBox="0 0 550 249.99999"
   inkscape:version="0.91 r13725"
   sodipodi:docname="opLogo.svg">
  <metadata
     id="metadata22954">
    <rdf:RDF>
      <cc:Work
         rdf:about="">
        <dc:format>image/svg+xml</dc:format>
        <dc:type
           rdf:resource="http://purl.org/dc/dcmitype/StillImage" />
        <dc:title></dc:title>
      </cc:Work>
    </rdf:RDF>
  </metadata>
  <defs
     id="defs22952" />
  <sodipodi:namedview
     pagecolor="#ffffff"
     bordercolor="#666666"
     borderopacity="1"
     objecttolerance="10"
     gridtolerance="10"
     guidetolerance="10"
     inkscape:pageopacity="0"
     inkscape:pageshadow="2"
     inkscape:window-width="1366"
     inkscape:window-height="715"
     id="namedview22950"
     showgrid="false"
     fit-margin-top="0"
     fit-margin-left="0"
     fit-margin-right="0"
     fit-margin-bottom="0"
     inkscape:zoom="0.89"
     inkscape:cx="158.68551"
     inkscape:cy="59.550659"
     inkscape:window-x="-8"
     inkscape:window-y="-8"
     inkscape:window-maximized="1"
     inkscape:current-layer="svg" />
  <path
     style="fill:#f8f8f7;fill-rule:evenodd;stroke:none"
     inkscape:connector-curvature="0"
     d="m 353.03486,43.752316 c -7.69875,2.456926 -12.82792,8.333299 -14.85848,17.023089 -0.49339,2.10614 -0.45916,2.35426 0.38786,2.79203 1.04808,0.54186 1.73967,0.27093 2.61948,-1.02527 3.75883,-5.54698 9.92752,-7.928326 15.53582,-5.999005 0.76003,0.260955 1.5272,0.474845 1.70687,0.474845 0.56182,0 4.59443,2.00917 7.45348,3.71177 6.39542,3.81158 9.9318,5.16624 14.45494,5.53557 3.02731,0.24669 7.10269,-0.0513 8.15648,-0.59605 0.35506,-0.18253 0.78427,-0.33368 0.95396,-0.33368 1.77532,-0.003 7.35652,-4.38767 9.3771,-7.3665 2.22592,-3.283978 4.70281,-10.540679 3.91996,-11.484663 -0.9283,-1.116526 -2.14606,-0.714405 -3.47363,1.14647 -2.78917,3.908551 -5.86354,5.622553 -10.34675,5.766574 -5.30457,0.169689 -7.04424,-0.412101 -15.08664,-5.040761 -2.1147,-1.217769 -4.10391,-2.292941 -4.42047,-2.389906 -0.31656,-0.09696 -0.68161,-0.258099 -0.8128,-0.359342 -0.37217,-0.285191 -3.32676,-1.423106 -3.70178,-1.425958 -0.1868,-0.0014 -1.01671,-0.215319 -1.84519,-0.474844 -2.18885,-0.687312 -7.80427,-0.660218 -10.02021,0.04563 M 73.310368,72.963065 c -4.670013,0.50479 -7.539041,0.89836 -8.080905,1.1094 -0.326544,0.12691 -1.116525,0.30658 -1.755354,0.40069 -0.63883,0.0941 -1.494405,0.30944 -1.902229,0.48055 -0.406398,0.16969 -1.166433,0.41923 -1.68976,0.55327 -0.523327,0.13404 -1.431662,0.41923 -2.020583,0.63455 -1.008152,0.36933 -1.458755,0.56611 -4.217984,1.83379 -21.663156,9.96174 -33.080803,37.104845 -27.272875,64.838305 2.349979,11.22514 9.579587,23.21745 16.994569,28.19261 0.456307,0.30658 1.504386,1.04381 2.327164,1.63843 2.416999,1.74822 8.410301,4.86679 9.352859,4.86679 0.189653,0 0.452029,0.10695 0.584643,0.23957 0.131188,0.13118 0.767165,0.38643 1.413125,0.56753 0.647384,0.17967 1.49583,0.43919 1.887968,0.57466 1.969248,0.68303 4.118167,1.23916 4.775534,1.2363 0.403546,-0.003 1.259121,0.16399 1.900802,0.3679 3.070088,0.97821 19.224767,0.97678 22.296281,0 0.641681,-0.20391 1.528627,-0.37217 1.969248,-0.37217 0.440621,0 1.199231,-0.16684 1.685482,-0.37218 0.484826,-0.20391 1.310456,-0.46344 1.833783,-0.57609 1.625592,-0.34793 3.293963,-0.95967 6.104526,-2.23875 0.744348,-0.33795 1.408848,-0.61459 1.477298,-0.61459 0.54899,0 6.548,-3.76881 8.76822,-5.50847 14.05281,-11.0084 20.65927,-27.74487 19.4743,-49.33245 -1.04238,-18.97094 -9.79205,-34.558085 -23.39284,-41.670765 -2.64515,-1.38461 -5.1691,-2.59239 -5.41294,-2.59239 -0.15971,0 -0.57466,-0.15971 -0.921168,-0.35364 -1.115099,-0.62457 -3.443688,-1.37035 -6.692021,-2.14464 -0.849871,-0.20249 -1.9721,-0.47627 -2.495427,-0.60746 -0.5219,-0.13119 -2.287236,-0.39784 -3.921384,-0.59462 -6.893082,-0.82563 -9.542512,-0.93828 -13.070332,-0.55613 m 202.842532,-0.001 c -3.93136,0.39357 -7.68449,0.87839 -7.91834,1.02099 -0.13262,0.0827 -0.97108,0.3023 -1.86516,0.48768 -9.70079,2.0163 -20.97869,9.07907 -26.86077,16.81917 -7.45348,9.810585 -10.99556,19.605495 -11.73706,32.451955 -1.39887,24.28548 7.91549,42.99691 25.87971,51.98757 2.45978,1.2306 3.50358,1.67123 5.74661,2.42413 0.5875,0.19821 1.406,0.50907 1.8181,0.69159 0.4121,0.1811 0.94969,0.33082 1.19638,0.33082 0.24669,0 1.05663,0.2139 1.79956,0.47485 0.74435,0.26095 1.71257,0.47484 2.1532,0.47484 0.43919,0 1.32471,0.16541 1.96639,0.36647 0.64168,0.20106 2.67938,0.45631 4.52884,0.56468 4.50175,0.26666 4.39481,0.11123 3.06296,4.4162 -2.23875,7.24244 -2.34855,7.64456 -2.18884,8.06094 0.18537,0.48197 1.1978,0.48483 3.69465,0.0114 3.33104,-0.6317 7.12837,0.35791 8.02387,2.09045 1.43309,2.77207 -1.78102,5.89206 -6.80467,6.60504 -0.84987,0.12121 -2.55104,0.37645 -3.78022,0.56753 -2.06906,0.32084 -2.49114,0.31086 -5.64394,-0.12548 -3.75027,-0.51905 -4.25078,-0.44348 -4.49604,0.68161 -0.0784,0.35506 -0.18538,0.7857 -0.23814,0.95681 -0.16826,0.54187 0.99532,1.47159 1.84804,1.4773 0.43064,0.003 1.57854,0.21674 2.54962,0.47627 2.34997,0.62457 15.98784,0.71155 17.99844,0.11407 0.65737,-0.19535 1.82665,-0.45203 2.59809,-0.57323 8.88515,-1.38176 14.5077,-8.45451 11.44902,-14.40075 -1.87085,-3.63762 -9.07622,-5.67674 -15.16506,-4.29214 -0.89693,0.20391 -2.03627,0.37503 -2.5325,0.38073 -0.49766,0.006 -1.32757,0.16114 -1.84377,0.34509 -1.70117,0.60603 -1.74394,0.28376 -0.50193,-3.746 0.82848,-2.69221 0.92544,-2.7521 4.80262,-3.01875 1.68121,-0.11408 3.52354,-0.37788 4.09535,-0.58322 0.57181,-0.20534 1.26483,-0.37503 1.54004,-0.37503 1.69546,0 9.23878,-3.79019 14.82141,-7.44778 4.52884,-2.96884 5.71951,-2.44979 6.72767,2.9332 0.66877,3.5706 0.57466,3.43371 2.39561,3.50643 2.21023,0.0898 2.07904,0.57466 1.85945,-6.83462 -0.10552,-3.59341 -0.20106,-11.61443 -0.21105,-17.82447 -0.02,-13.13307 0.0941,-12.44291 -2.05765,-12.547 -1.89225,-0.0913 -1.98779,0.0499 -2.37422,3.46222 -0.17254,1.5329 -0.42066,3.42943 -0.549,4.2137 -0.12976,0.78428 -0.30087,1.85375 -0.38073,2.37565 -1.89367,12.42437 -9.16891,21.36798 -19.84078,24.39244 -0.45773,0.12976 -1.41883,0.41638 -2.13894,0.63598 -1.87085,0.57466 -9.61381,0.58036 -11.16953,0.009 -0.58749,-0.21532 -1.43023,-0.45631 -1.87085,-0.53474 -1.96925,-0.34793 -6.37118,-3.09005 -9.0748,-5.65107 -17.4081,-16.49406 -17.44517,-70.20419 -0.0599,-87.210165 7.88697,-7.71443 20.82469,-8.76679 30.59821,-2.48687 8.92935,5.73806 13.1673,13.70488 14.53907,27.331335 0.20676,2.06621 0.60033,2.51824 2.18456,2.51824 2.24019,0 2.04483,1.41313 2.21594,-16.027765 0.0827,-8.44595 0.22531,-16.25307 0.31799,-17.34963 0.19251,-2.32431 0.0485,-2.51111 -1.93787,-2.50541 -1.62845,0.006 -1.69262,0.0913 -2.32432,3.14281 -1.31045,6.31557 -2.62519,6.76332 -7.85132,2.6694 -7.47915,-5.85784 -18.79556,-8.95359 -28.99401,-7.93403 m 192.74106,-0.0171 c -5.30599,0.57894 -7.68307,0.90833 -8.09802,1.12223 -0.25097,0.12976 -1.02384,0.30943 -1.71828,0.39784 -0.69302,0.087 -1.60135,0.3023 -2.01916,0.47627 -0.4178,0.17539 -1.56142,0.56468 -2.54248,0.86555 -7.30518,2.24874 -15.26916,7.78716 -21.6874,15.07809 -14.77435,16.784945 -16.57391,49.647575 -3.79447,69.273025 5.74518,8.82383 14.19826,15.1394 24.76889,18.50894 3.88288,1.23631 4.72277,1.45876 5.51275,1.45876 0.46487,0 1.31189,0.16968 1.8837,0.37645 2.725,0.98534 19.58268,0.98676 22.28202,0.003 0.57181,-0.20819 1.37319,-0.37788 1.78244,-0.37645 0.40783,0.001 1.43737,-0.2196 2.28724,-0.49053 0.84845,-0.26951 2.24018,-0.70585 3.08863,-0.96823 15.79533,-4.87535 29.07671,-19.798 32.75853,-36.80682 5.03934,-23.27734 -1.10654,-45.814605 -15.74115,-57.725635 -2.59667,-2.1147 -8.63132,-5.96763 -9.3443,-5.96763 -0.0741,0 -0.57324,-0.20106 -1.11082,-0.44633 -1.87656,-0.85843 -4.31781,-1.77817 -5.84928,-2.20453 -0.45774,-0.12691 -1.15218,-0.34366 -1.54432,-0.48197 -0.39214,-0.1369 -1.4616,-0.39072 -2.37707,-0.56468 -0.91404,-0.17254 -2.09045,-0.42351 -2.61378,-0.55613 -2.94318,-0.75148 -12.55699,-1.33755 -15.92367,-0.97108 m -103.44186,1.95731 c -0.32654,0.4064 -1.35181,2.85049 -3.26544,7.78288 -0.88837,2.28724 -2.39133,6.13733 -3.3396,8.55575 -1.74109,4.43616 -3.40804,8.71118 -5.60401,14.377935 -0.65879,1.69974 -1.55572,3.99838 -1.99206,5.11063 -0.43635,1.11082 -1.27338,3.24976 -1.85803,4.75272 -0.58464,1.50296 -1.54431,3.96274 -2.13323,5.4657 -1.46589,3.74314 -2.20596,5.65535 -2.91751,7.54474 -0.33225,0.88267 -0.80852,2.08618 -1.05806,2.6751 -0.40212,0.95111 -2.14322,5.4001 -3.67184,9.38708 -0.30088,0.78428 -1.13649,2.92321 -1.8566,4.75414 -0.72154,1.8295 -1.86515,4.76983 -2.54391,6.53517 -3.56775,9.27728 -4.3948,11.29786 -5.74233,14.02144 -2.54249,5.14058 -6.67491,9.69937 -8.82668,9.73644 -1.20637,0.0214 -2.17887,2.5539 -1.26911,3.30823 0.23529,0.19393 4.33492,0.25097 14.91267,0.20676 l 14.59041,-0.0613 0.0713,-1.24771 c 0.087,-1.50154 -0.14687,-1.64841 -3.16135,-1.99634 -10.93567,-1.26483 -12.52133,-8.3989 -5.72094,-25.74995 2.35568,-6.01184 3.46365,-8.93505 3.46365,-9.14182 0,-0.11978 0.23671,-0.38501 0.52761,-0.58892 0.857,-0.60033 30.57682,-0.55612 31.26555,0.0456 0.27094,0.23671 1.16644,2.31291 2.0762,4.81261 0.87982,2.41842 1.91649,5.25322 2.30577,6.29845 0.38786,1.04523 1.01101,2.75638 1.38461,3.80303 0.37217,1.04523 0.95824,2.64943 1.29905,3.5649 0.34223,0.91404 0.81422,2.1974 1.04808,2.85191 0.23528,0.65309 0.70299,1.93645 1.03952,2.85192 2.81199,7.62317 1.74109,10.36672 -4.32208,11.06971 -3.92994,0.45631 -4.54025,0.76004 -4.54025,2.25444 0,1.35609 -1.07802,1.29905 22.95935,1.23346 l 22.31482,-0.0613 0.0713,-1.24344 c 0.0741,-1.28764 -0.70157,-2.19883 -1.87371,-2.20168 -0.43064,0 -2.95316,-1.69404 -3.66471,-2.45978 -1.90936,-2.0548 -2.73784,-3.84866 -7.37791,-15.95932 -0.70157,-1.8295 -1.71971,-4.45041 -2.263,-5.82219 -0.54329,-1.37319 -1.22775,-3.1371 -1.52007,-3.92138 -0.29374,-0.78428 -1.03667,-2.70932 -1.65268,-4.27787 -0.61459,-1.56855 -1.5543,-3.97557 -2.08761,-5.34734 -0.5333,-1.3732 -1.74109,-4.47466 -2.68365,-6.89308 -2.47404,-6.3498 -3.94848,-10.13999 -5.3616,-13.78332 -0.68304,-1.76533 -1.92219,-4.93951 -2.7521,-7.05421 -0.82991,-2.1147 -1.75963,-4.52171 -2.06621,-5.34734 -0.58037,-1.56856 -3.46223,-8.994945 -6.48241,-16.712225 -0.9725,-2.48402 -1.97495,-5.05075 -2.22735,-5.70383 -3.39235,-8.78105 -2.25158,-7.72442 -8.33187,-7.72442 -3.65473,0 -4.98657,0.077 -5.16197,0.29803 m -229.78459,0.76567 c -0.857,1.22204 -0.15543,2.50113 1.3732,2.50113 0.52475,0 1.66552,0.17681 2.53678,0.39356 0.87126,0.21532 1.96354,0.48197 2.4284,0.59035 2.00205,0.46914 3.57773,2.66226 4.07539,5.67103 0.38216,2.31718 0.5547,77.122935 0.18823,81.979755 -0.50194,6.65209 -2.00775,8.47874 -7.3337,8.90225 -3.0102,0.23814 -4.03689,1.05236 -3.44655,2.72929 l 0.21818,0.62029 24.92289,0.0613 c 27.53383,0.067 25.56743,0.19108 25.56743,-1.61847 0,-1.77674 -0.22102,-1.88796 -3.76881,-1.88796 -2.04197,0 -3.48219,-0.12549 -4.439,-0.38501 -0.78,-0.21104 -1.79101,-0.45916 -2.24874,-0.55185 -2.40274,-0.48625 -4.02548,-2.3842 -4.74844,-5.55696 -0.48055,-2.10614 -0.49481,-2.69078 -0.42921,-16.91614 l 0.0684,-14.73442 6.17868,-0.16541 c 12.59121,-0.33795 16.95892,-0.94113 22.81533,-3.15137 0.91546,-0.3465 1.93502,-0.71725 2.2687,-0.8242 7.95684,-2.56815 16.29014,-11.19805 18.71855,-19.38733 1.26197,-4.2522 1.29477,-4.46039 1.40457,-8.91223 0.27806,-11.296435 -4.95663,-19.900675 -15.24207,-25.051235 -3.47363,-1.73967 -9.61808,-3.70891 -11.5688,-3.70749 -0.46914,0.001 -1.37034,-0.154 -2.00347,-0.34508 -2.88471,-0.86841 -56.9385,-1.10654 -57.53598,-0.25382 m -53.32655,1.1536 c 15.966453,5.86069 24.74038,31.165735 21.6047,62.307235 -0.30373,3.01875 -1.27339,8.95929 -1.74538,10.69468 -0.17682,0.65451 -0.39214,1.58994 -0.47627,2.07905 -0.36932,2.13893 -2.43126,7.83136 -4.076815,11.25366 -9.769199,20.32275 -29.756854,20.44253 -40.383094,0.24383 -8.5201,-16.19318 -9.957465,-44.55976 -3.306797,-65.237575 3.881458,-12.0636 11.419073,-20.70063 19.114969,-21.89986 2.465481,-0.38501 7.53191,-0.0784 9.268727,0.55898 m 395.43244,-0.0599 c 5.48423,2.11897 9.02203,5.08924 12.85358,10.79592 9.40277,14.002905 12.17341,39.975305 6.80468,63.811615 -0.3237,1.43594 -1.71828,5.84786 -2.6309,8.31762 -2.43126,6.58935 -7.30946,13.06605 -12.12635,16.10049 -0.96394,0.60746 -3.38094,1.72398 -3.73315,1.72398 -0.19964,0 -0.77715,0.17682 -1.28337,0.39357 -2.83623,1.21492 -9.34715,0.35506 -13.16016,-1.73967 -9.10617,-5.00083 -16.22313,-18.45903 -18.0783,-34.18449 -0.13832,-1.17641 -0.35221,-2.88756 -0.47484,-3.8016 -1.74252,-13.02328 0.51619,-33.02091 4.93951,-43.729855 4.18947,-10.13856 11.06972,-17.2327 17.65337,-18.19808 2.4612,-0.36219 7.73297,-0.0699 9.23593,0.5105 m -294.01973,1.90222 c 8.17359,1.9336 12.02796,7.954 13.14591,20.53808 1.44592,16.251635 -2.49543,28.954075 -10.12573,32.641605 -0.90549,0.43776 -1.83521,0.8955 -2.06764,1.0167 -0.23386,0.12264 -1.24914,0.37788 -2.25872,0.56753 -1.00815,0.18966 -2.31575,0.44918 -2.90325,0.57752 -1.62987,0.35221 -8.13794,0.31799 -8.6356,-0.0471 -0.38216,-0.27949 -0.40497,-1.87229 -0.34366,-24.89438 l 0.067,-24.596345 0.56896,-1.75963 c 1.29905,-4.01835 6.11023,-5.56837 12.55271,-4.04402 m 176.71045,20.8361 c 0.20534,0.22816 0.58322,1.003875 0.84132,1.722555 0.25809,0.71868 2.74354,7.51052 5.52416,15.09092 2.77919,7.58181 5.24039,14.31947 5.46855,14.97256 0.22815,0.65451 0.73151,2.04482 1.11795,3.09005 0.38643,1.04522 0.65594,2.03484 0.5989,2.19882 -0.15685,0.44348 -28.30955,0.4335 -28.47923,-0.01 -0.11978,-0.31228 0.15543,-1.09228 3.21981,-9.0805 0.95254,-2.48402 1.91506,-4.99798 2.13894,-5.58547 1.27908,-3.34673 2.08617,-5.44716 3.19699,-8.31762 1.4117,-3.64475 2.78347,-7.24244 3.62622,-9.50686 0.31656,-0.84987 0.77001,-2.02629 1.00957,-2.61378 0.23814,-0.58892 0.55042,-1.36464 0.69302,-1.723985 0.3023,-0.76003 0.52903,-0.81137 1.0438,-0.2367"
     id="path0" />
</svg>
