<?xml version="1.0" encoding="UTF-8" standalone="no"?>
<svg
   xmlns:dc="http://purl.org/dc/elements/1.1/"
   xmlns:cc="http://creativecommons.org/ns#"
   xmlns:rdf="http://www.w3.org/1999/02/22-rdf-syntax-ns#"
   xmlns:svg="http://www.w3.org/2000/svg"
   xmlns="http://www.w3.org/2000/svg"
   xmlns:sodipodi="http://sodipodi.sourceforge.net/DTD/sodipodi-0.dtd"
   xmlns:inkscape="http://www.inkscape.org/namespaces/inkscape"
   id="svg"
   version="1.1"
   width="550"
   height="250"
   viewBox="0 0 550 250"
   inkscape:version="0.91 r13725"
   sodipodi:docname="ramosLogo.svg">
  <metadata
     id="metadata22937">
    <rdf:RDF>
      <cc:Work
         rdf:about="">
        <dc:format>image/svg+xml</dc:format>
        <dc:type
           rdf:resource="http://purl.org/dc/dcmitype/StillImage" />
        <dc:title></dc:title>
      </cc:Work>
    </rdf:RDF>
  </metadata>
  <defs
     id="defs22935" />
  <sodipodi:namedview
     pagecolor="#ffffff"
     bordercolor="#666666"
     borderopacity="1"
     objecttolerance="10"
     gridtolerance="10"
     guidetolerance="10"
     inkscape:pageopacity="0"
     inkscape:pageshadow="2"
     inkscape:window-width="1366"
     inkscape:window-height="715"
     id="namedview22933"
     showgrid="false"
     fit-margin-top="0"
     fit-margin-left="0"
     fit-margin-right="0"
     fit-margin-bottom="0"
     inkscape:zoom="0.89"
     inkscape:cx="193.60368"
     inkscape:cy="102.16318"
     inkscape:window-x="-8"
     inkscape:window-y="-8"
     inkscape:window-maximized="1"
     inkscape:current-layer="svg" />
  <path
     style="fill:#f8f8f9;fill-rule:evenodd;stroke:none"
     inkscape:connector-curvature="0"
     d="m 86.446423,22.30919 c -1.338,0.487 -1.891,0.96 -2.143,1.833 -0.169,0.587 -0.219,21.454 -0.174,72.320999 l 0.064,71.498001 0.549,0.587 c 1.138,1.218 1.022,1.205 10.581999,1.201 9.689998,-0.004 9.594998,0.009 10.371998,-1.314 0.446,-0.759 0.453,-1.053 0.562,-24.588 0.061,-13.101 0.196,-23.998 0.302,-24.215 0.326,-0.674 0.886,-0.327 1.174,0.727 0.401,1.465 4.644,14.221 5.11,15.365 0.222,0.543 0.559,1.457 0.75,2.03 0.191,0.574 0.503,1.513 0.694,2.086 0.19,0.574 0.528,1.487 0.751,2.031 0.222,0.543 0.546,1.432 0.72,1.976 0.27,0.844 4.936,14.716 6.436,19.135 0.273,0.804 0.651,1.763 0.841,2.13 0.19,0.367 0.345,0.847 0.345,1.068 0,0.822 1.408,3.233 2.086,3.572 1.053,0.527 17.276,0.487 18.247,-0.045 0.788,-0.432 1.401,-1.569 1.401,-2.599 0,-0.701 -3.9,-12.753 -4.473,-13.821 -0.162,-0.302 -0.414,-1.042 -0.561,-1.644 -0.147,-0.602 -0.366,-1.214 -0.487,-1.36 -0.121,-0.145 -0.357,-0.739 -0.524,-1.32 -0.168,-0.58 -0.659,-2.043 -1.092,-3.25 -0.433,-1.208 -0.919,-2.64 -1.08,-3.184 -0.161,-0.543 -0.95,-2.914 -1.755,-5.268 -0.805,-2.355 -1.602,-4.726 -1.771,-5.269 -0.17,-0.544 -0.618,-1.828 -0.996,-2.854 -0.378,-1.027 -0.836,-2.311 -1.017,-2.854 -0.181,-0.544 -0.511,-1.433 -0.733,-1.976 -0.222,-0.544 -0.545,-1.433 -0.717,-1.976 -0.171,-0.543 -1.202,-3.655 -2.291,-6.916 -2.696,-8.075 -2.674,-7.512 -0.341,-8.673 5.413,-2.696 11.875,-10.190001 12.904,-14.964001 0.087,-0.402 0.307,-1.024 0.49,-1.382 1.818,-3.555 1.696,-44.811999 -0.145,-48.854999 -0.248,-0.544 -0.452,-1.109 -0.455,-1.257 -0.005,-0.249 -0.908,-2.152 -1.922,-4.047 -3.77,-7.045 -10.588,-12.065 -18.5,-13.621 -2.987,-0.587 -31.703997,-0.853 -33.202997,-0.308 m 272.791997,0.254 c -4.748,0.518 -9.881,2.733 -13.903,5.998 -1.233,1.002 -4.61,4.416 -4.61,4.661 0,0.075 -0.291,0.501 -0.645,0.948 -1.616,2.033 -3.457,6.413 -4.435,10.555 l -0.519,2.195 0,49.286999 0,49.286001 0.616,2.525 c 2.339,9.592 7.742,15.908 16.948,19.812 1.388,0.589 2.257,0.835 5.966,1.69 3.533,0.814 13.877,-0.02 16.36,-1.319 0.447,-0.233 0.93,-0.425 1.075,-0.425 0.448,0 3.524,-1.546 5.139,-2.584 5.344,-3.432 8.798,-8.024 11.055,-14.697 1.394,-4.123 1.349,-2.297 1.343,-54.363001 -0.006,-50.836999 -0.023,-51.635999 -1.142,-53.821999 -0.185,-0.362 -0.409,-1.004 -0.497,-1.427 -1.305,-6.221 -10.623,-15.658 -16.801,-17.015 -0.41,-0.09 -1.175,-0.348 -1.699,-0.573 -2.141,-0.917 -9.221,-1.281 -14.251,-0.732 m -180.268,0.426 c -1.044,0.458 -1.462,1.611 -2.112,5.819 -0.308,1.993 -0.713,4.611 -0.901,5.818 -0.187,1.208 -0.53,3.134 -0.763,4.281 -0.233,1.147 -0.486,2.728 -0.564,3.513 -0.077,0.785 -0.321,2.168 -0.541,3.073 -0.221,0.906 -0.509,2.559 -0.641,3.674 -0.132,1.115 -0.342,2.295 -0.466,2.623 -0.125,0.328 -0.369,1.673 -0.543,2.99 -0.173,1.316 -0.417,2.771 -0.541,3.233 -0.125,0.462 -0.327,1.662 -0.449,2.667 -0.122,1.005 -0.412,2.865 -0.645,4.133 -0.233,1.267 -0.733,4.281 -1.112,6.696 -0.378,2.415 -0.828,5.23 -1.001,6.256 -0.172,1.026999 -0.465,2.952999 -0.65,4.280999 -0.186,1.329 -0.476,3.009 -0.644,3.734 -0.168,0.725 -0.416,2.256 -0.552,3.403 -0.135,1.146 -0.382,2.627 -0.549,3.292 -0.167,0.664 -0.41,2.096 -0.54,3.183 -0.131,1.087 -0.385,2.494 -0.566,3.128 -0.181,0.634 -0.426,1.968001 -0.546,2.964001 -0.12,0.996 -0.404,2.651 -0.632,3.677 -0.227,1.027 -0.478,2.509 -0.556,3.293 -0.078,0.785 -0.24,1.8 -0.36,2.256 -0.12,0.455 -0.403,2.085 -0.629,3.622 -0.227,1.537 -0.562,3.683 -0.744,4.77 -0.182,1.087 -0.636,3.902 -1.008,6.257 -0.373,2.355 -0.873,5.417 -1.112,6.806 -0.24,1.388 -0.588,3.512 -0.774,4.72 -0.187,1.207 -0.48,2.936 -0.651,3.842 -0.172,0.905 -0.316,1.949 -0.321,2.318 -0.004,0.37 -0.199,1.407 -0.433,2.306 -0.234,0.898 -0.49,2.275 -0.569,3.06 -0.079,0.784 -0.329,2.233 -0.555,3.22 -0.225,0.986 -0.518,2.665 -0.649,3.732 -0.131,1.066 -0.374,2.482 -0.539,3.146 -0.165,0.664 -0.367,1.85 -0.45,2.635 -0.082,0.785 -0.288,2.1 -0.457,2.923 -0.551,2.678 -0.452,3.357 0.651,4.46 l 0.959,0.959 9.233,0 9.232,0 0.686,-0.576 c 1.135,-0.956 1.505,-1.977 1.87,-5.17 0.185,-1.609 0.386,-3.172 0.448,-3.474 0.062,-0.302 0.405,-2.821 0.763,-5.599 1.134,-8.822 1.3,-9.847 1.654,-10.201 0.349,-0.349 18.301,-0.652 20.024,-0.337 1.009,0.184 1.291,0.887 1.589,3.959 0.14,1.445 0.344,3.035 0.453,3.532 0.109,0.498 0.351,2.227 0.538,3.842 0.187,1.616 0.633,5.062 0.992,7.658 l 0.651,4.72 0.872,0.823 0.871,0.823 9.272,0 9.273,0 0.825,-0.572 c 1.427,-0.988 1.527,-2.548 0.491,-7.66 -0.171,-0.846 -0.456,-2.575 -0.633,-3.842 -0.178,-1.268 -0.47,-2.849 -0.651,-3.513 -0.181,-0.664 -0.472,-2.245 -0.647,-3.513 -0.175,-1.267 -0.465,-3.046 -0.644,-3.951 -0.179,-0.906 -0.429,-2.338 -0.555,-3.184 -0.126,-0.845 -0.373,-2.376 -0.549,-3.402 -0.176,-1.027 -0.585,-3.546 -0.908,-5.599 -0.323,-2.052 -0.783,-4.917 -1.023,-6.366 -0.239,-1.449 -0.621,-3.82 -0.849,-5.269 -0.929,-5.915 -1.13,-7.121 -1.538,-9.221 -0.235,-1.207 -0.487,-2.788 -0.562,-3.513 -0.074,-0.724 -0.314,-2.058 -0.532,-2.963 -0.218,-0.906 -0.462,-2.289 -0.543,-3.074 -0.08,-0.785 -0.334,-2.267 -0.563,-3.293 -0.23,-1.026001 -0.519,-2.706001 -0.641,-3.732001 -0.123,-1.026 -0.325,-2.212 -0.45,-2.635 -0.125,-0.422 -0.326,-1.558 -0.446,-2.524 -0.12,-0.966 -0.411,-2.843 -0.647,-4.172 -0.235,-1.328 -0.783,-4.687 -1.217,-7.464 -0.434,-2.776999 -0.973,-6.086999 -1.199,-7.353999 -0.225,-1.268 -0.475,-2.898 -0.555,-3.623 -0.08,-0.724 -0.322,-2.157 -0.539,-3.183 -0.216,-1.026 -0.459,-2.508 -0.539,-3.293 -0.081,-0.785 -0.284,-1.971 -0.453,-2.635 -0.169,-0.664 -0.419,-2.135 -0.556,-3.27 -0.137,-1.134 -0.388,-2.517 -0.558,-3.073 -0.169,-0.556 -0.416,-1.9 -0.548,-2.987 -0.132,-1.087 -0.429,-2.766 -0.658,-3.732 -0.23,-0.966 -0.418,-2.053 -0.417,-2.415 0.001,-0.362 -0.239,-1.992 -0.534,-3.623 -0.661,-3.658 -1.272,-7.36 -1.987,-12.035 -0.685,-4.477 -0.853,-5.097 -1.56,-5.762 l -0.569,-0.534 -10.794,-0.05 c -9.013,-0.041 -10.915,0.003 -11.518,0.268 m 60.603,-0.102 c -1.511,0.608 -1.379,-6.737 -1.318,73.500999 l 0.055,71.861001 0.82,0.752 0.82,0.751 9.128,0 c 9.62,0 9.589,0.003 10.562,-1.046 0.283,-0.305 0.536,-0.565 0.564,-0.577 0.028,-0.013 0.102,-15.287 0.165,-33.942 0.109,-32.328 0.177,-35.690001 0.709,-34.780001 0.159,0.274 1.296,5.168001 2.137,9.204001 0.378,1.811 0.93,4.338 1.228,5.616 0.297,1.277 0.541,2.52 0.541,2.762 0,0.241 0.188,1.073 0.418,1.848 0.23,0.775 0.569,2.15 0.753,3.056 0.185,0.905 0.494,2.288 0.688,3.073 0.194,0.785 0.6,2.563 0.902,3.952 0.302,1.389 0.747,3.414 0.988,4.501 0.242,1.086 0.588,2.716 0.771,3.622 0.182,0.906 0.626,3.03 0.986,4.72 0.36,1.691 0.848,4.058 1.085,5.262 0.626,3.173 0.782,3.555 1.576,3.831 0.913,0.319 10.855,0.318 11.769,0 0.753,-0.263 0.791,-0.344 1.139,-2.397 0.133,-0.785 0.334,-1.723 0.448,-2.086 0.114,-0.362 0.402,-1.696 0.641,-2.963 0.239,-1.268 0.727,-3.689 1.084,-5.379 0.357,-1.691 0.808,-3.864 1.001,-4.83 0.194,-0.966 0.541,-2.547 0.77,-3.513 0.23,-0.966 0.476,-2.151 0.547,-2.634 0.071,-0.483 0.323,-1.619 0.561,-2.525 0.237,-0.905 0.575,-2.338 0.75,-3.183 0.648,-3.116 1.04,-4.87 1.447,-6.476 0.23,-0.906 0.477,-2.092 0.551,-2.635 0.073,-0.543 0.283,-1.523 0.465,-2.176 0.182,-0.654 0.467,-1.938 0.633,-2.854 0.167,-0.916 0.556,-2.802 0.867,-4.191 0.31,-1.388 0.616,-2.758 0.679,-3.044001 0.064,-0.286 0.169,-0.467 0.234,-0.402 0.553,0.553001 0.609,3.273001 0.726,35.097001 l 0.122,33.298 0.549,0.587 c 1.138,1.217 1.022,1.204 10.594,1.204 l 8.86,0 0.754,-0.556 c 0.414,-0.306 0.903,-0.824 1.085,-1.152 0.346,-0.622 0.661,-139.635 0.323,-142.498 -0.108,-0.915 -0.301,-1.353 -0.871,-1.975 l -0.733,-0.8 -8.963,-0.066 c -4.93,-0.036 -9.286,-0.006 -9.681,0.066 -1.471,0.269 -1.863,1.353 -3.447,9.55 -0.292,1.509 -0.682,3.485 -0.866,4.391 -0.184,0.905 -0.592,2.931 -0.907,4.5 -0.314,1.57 -0.754,3.595 -0.976,4.501 -0.223,0.905 -0.474,2.19 -0.559,2.854 -0.084,0.664 -0.332,1.8 -0.55,2.524 -0.217,0.725 -0.5,2.016 -0.628,2.87 -0.128,0.854 -0.37,1.943 -0.538,2.42 -0.168,0.476 -0.375,1.408 -0.46,2.069 -0.084,0.662 -0.336,1.895 -0.56,2.74 -0.223,0.845 -0.467,1.982 -0.543,2.525 -0.075,0.543 -0.327,1.828 -0.558,2.854 -0.232,1.026 -0.636,2.953 -0.898,4.281 -1.064,5.392 -1.534,7.793999 -1.955,9.988999 -0.242,1.268 -0.536,2.602 -0.652,2.964 -0.117,0.362 -0.319,1.399 -0.451,2.305 -0.131,0.906 -0.378,2.091 -0.548,2.634 -0.169,0.544 -0.413,1.68 -0.542,2.525 -0.128,0.845 -0.38,1.987 -0.56,2.538 -0.179,0.551 -0.47,1.835 -0.647,2.854 -0.177,1.019 -0.471,2.393 -0.655,3.053 -0.183,0.661001 -0.333,1.393001 -0.333,1.629001 0,0.236 -0.253,1.523 -0.561,2.861 -0.309,1.338 -0.696,3.036 -0.862,3.774 -0.525,2.34 -1.387,3.709 -1.752,2.784 -0.291,-0.734 -1.018,-3.678 -1.426,-5.772 -0.934,-4.788 -1.169,-5.887001 -1.551,-7.245001 -0.221,-0.784 -0.467,-1.92 -0.545,-2.524 -0.079,-0.604 -0.328,-1.691 -0.552,-2.415 -0.225,-0.725 -0.513,-2.027 -0.641,-2.894 -0.128,-0.867 -0.33,-1.832 -0.449,-2.146 -0.119,-0.313 -0.318,-1.234 -0.442,-2.046 -0.124,-0.812 -0.419,-2.316 -0.655,-3.342 -0.438,-1.908 -1.04,-4.850999 -1.75,-8.561999 -0.885,-4.629 -1.373,-6.995 -1.763,-8.562 -0.226,-0.906 -0.48,-2.188 -0.564,-2.85 -0.085,-0.662 -0.294,-1.6 -0.465,-2.085 -0.172,-0.486 -0.414,-1.616 -0.539,-2.513 -0.124,-0.896 -0.369,-1.986 -0.543,-2.421 -0.174,-0.436 -0.452,-1.579 -0.616,-2.542 -0.164,-0.962 -0.451,-2.392 -0.638,-3.177 -0.423,-1.782 -0.965,-4.348 -1.462,-6.915 -0.711,-3.673 -2.654,-13.156 -3.216,-15.697 -0.592,-2.676 -1.182,-3.796 -2.206,-4.185 -0.694,-0.264 -18.237,-0.246 -18.898,0.02 m 193.029,-0.01 c -1.208,0.1 -2.592,0.326 -3.077,0.504 -0.484,0.177 -1.31,0.394 -1.836,0.483 -1.674,0.283 -5.521,2.09 -8.14,3.825 -5.35,3.542 -9.413,9.523 -11.275,16.597 l -0.693,2.634 -0.003,15.368 -0.004,15.368 0.634,2.084999 c 0.881,2.903 1.607,4.257 3.608,6.73 0.742,0.917 2.055,2.119 16.395,15.002001 17.589,15.802 15.697,12.267 15.697,29.326 l 0,12.334 -0.526,1.18 c -1.891,4.239 -10.442,4.7 -12.799,0.691 l -0.616,-1.048 -0.109,-9.911 c -0.143,-12.896 1.228,-11.494 -11.245,-11.493 -12.337,0.001 -11.043,-1.492 -11.025,12.724 l 0.014,10.656 0.683,2.635 c 2.21,8.527 7.551,15.179 14.877,18.531 0.845,0.386 1.882,0.882 2.305,1.102 0.422,0.22 1.114,0.468 1.536,0.551 0.423,0.084 1.46,0.368 2.306,0.632 2.178,0.679 12.887,0.73 14.785,0.069 0.646,-0.224 1.683,-0.536 2.305,-0.692 5.094,-1.28 10.134,-4.803 13.974,-9.766 0.302,-0.39 0.767,-0.978 1.033,-1.307 1.229,-1.518 3.156,-6.017 3.952,-9.23 0.528,-2.129 0.696,-33.053 0.196,-35.943 -0.485,-2.796 -1.277,-4.646 -2.971,-6.937 -0.699,-0.945 -8.011,-7.818001 -10.552,-9.919001 -0.543,-0.449 -2.124,-1.877 -3.513,-3.172 -1.388,-1.296 -3.068,-2.831 -3.732,-3.412 -2.762,-2.417 -4.566,-4.036 -6.026,-5.408 -0.852,-0.8 -2.63,-2.415 -3.953,-3.59 -2.756,-2.445999 -3.612,-3.466999 -4.329,-5.164999 l -0.511,-1.207 0,-12.294 0,-12.294 0.682,-1.208 c 1.228,-2.173 2.092,-2.525 6.217,-2.525 3.324,0 3.444,0.017 4.298,0.578 2.614,1.719 2.607,1.687 2.741,12.595 0.158,12.915 -0.938,11.745 11.003,11.745 12.03,0 10.953,1.198 10.953,-12.184 0,-12.75 -0.333,-15.089 -2.865,-20.152 -3.096,-6.191 -7.763,-10.367 -15.027,-13.447 -3.379,-1.433 -9.702,-2.108 -15.367,-1.641 m -316.027,22.22 c 1.241,0.546 2.36,1.803 2.737,3.074 0.512,1.723 0.505,34.215999 -0.007,35.941999 -0.426,1.433 -1.788,2.874 -3.084,3.262 -1.49,0.445 -9.168,0.37 -9.553,-0.093 -0.25,-0.301 -0.311,-3.893 -0.361,-20.970999 l -0.061,-20.607 0.57,-0.57 0.57,-0.57 4.211,0.097 c 3.144,0.072 4.405,0.183 4.978,0.436 m 251.921,0.224 c 0.835,0.449 1.918,1.595 2.446,2.587 0.594,1.118 0.756,94.23 0.167,96.006 -0.916,2.755 -2.418,3.555 -6.674,3.555 -3.852,0 -4.936,-0.418 -6.201,-2.389 l -0.715,-1.114 0,-47.883001 0,-47.882999 0.655,-0.945 c 0.732,-1.056 1.94,-1.943 3.02,-2.217 1.273,-0.324 6.556,-0.119 7.302,0.283 m -177.926,28.294 c 0.31,0.606 0.543,1.809 0.772,3.991 0.181,1.717999 0.422,3.468999 0.535,3.891999 0.114,0.422 0.309,1.756 0.435,2.963 0.125,1.208 0.423,3.48 0.661,5.05 0.239,1.569 0.587,4.089 0.773,5.598 0.705,5.699001 1.654,12.855001 1.748,13.172001 0.053,0.181 0.205,1.416 0.337,2.745 0.132,1.328 0.382,3.205 0.555,4.171 0.623,3.48 0.778,5.867 0.418,6.417 l -0.327,0.498 -6.327,0 c -7.675,0 -7.224,0.183 -6.858,-2.785 0.53,-4.306 0.665,-5.32 0.983,-7.423 0.451,-2.978 1.15,-8.05 1.694,-12.294001 0.248,-1.932 0.687,-5.291 0.976,-7.465 0.288,-2.173 0.68,-5.137 0.871,-6.586 0.191,-1.449 0.539,-3.869 0.774,-5.379 0.235,-1.509 0.526,-3.696999 0.648,-4.862999 0.328,-3.138 0.493,-3.348 1.332,-1.702 m 49.356,106.656 -0.519,0.419 0,23.173 c 0,21.954 0.021,23.194 0.392,23.565 0.363,0.363 1.015,0.392 8.635,0.392 9.831,0 8.866,0.387 8.866,-3.554 0,-3.788 0.302,-3.581 -5.231,-3.581 -4.256,0 -4.363,-0.011 -4.826,-0.504 l -0.474,-0.504 -0.058,-19.494 -0.059,-19.493 -0.518,-0.419 c -0.771,-0.624 -5.438,-0.624 -6.208,0 m 28.558,-0.112 c -3.136,1.198 -5.284,3.56 -5.907,6.498 -0.187,0.877 -0.238,5.77 -0.187,17.904 l 0.069,16.697 0.761,1.499 c 3.79,7.466 15.357,6.52 17.562,-1.436 0.697,-2.515 0.695,-32.573 -0.002,-35.089 -0.689,-2.485 -2.22,-4.384 -4.49,-5.569 -1.55,-0.81 -6.218,-1.111 -7.806,-0.504 m 18.775,-0.099 c -1.143,0.463 -1.09,-0.54 -1.09,20.626 l 0,19.67 0.523,1.427 c 2.859,7.797 13.985,8.353 17.568,0.878 l 0.79,-1.646 0.067,-19.539 c 0.082,-23.8 0.452,-21.625 -3.686,-21.625 -3.784,0 -3.387,-2.297 -3.516,20.345 l -0.11,19.137 -0.522,0.555 c -1.011,1.076 -3.066,0.836 -3.541,-0.414 -0.138,-0.364 -0.218,-7.48 -0.218,-19.457 l 0,-18.882 -0.642,-0.642 c -0.668,-0.668 -4.344,-0.951 -5.623,-0.433 m 23.486,0.103 c -0.574,0.419 -0.795,46.451 -0.228,47.227 0.398,0.544 5.715,0.659 6.344,0.137 0.315,-0.261 0.36,-1.615 0.418,-12.623 0.066,-12.513 0.18,-14.269 0.818,-12.591 0.129,0.34 0.235,0.76 0.235,0.932 0,0.173 0.209,0.918 0.464,1.657 0.256,0.738 0.597,1.85 0.758,2.47 0.162,0.621 0.581,2.166 0.933,3.434 1.013,3.656 1.814,6.548 2.371,8.562 2.484,8.983 2.088,8.452 6.306,8.452 3.888,0 3.438,3.142 3.438,-23.964 l 0,-22.927 -0.539,-0.539 c -0.614,-0.614 -4.77,-0.812 -5.933,-0.282 -0.778,0.355 -0.747,-0.118 -0.83,12.476 -0.087,13.172 -0.294,14.616 -1.461,10.209 -0.493,-1.86 -0.577,-2.16 -2.664,-9.55 -0.733,-2.596 -1.52,-5.412 -1.749,-6.257 -1.207,-4.457 -1.5,-5.347 -2.044,-6.202 l -0.593,-0.933 -2.809,0 c -2.079,0 -2.92,0.081 -3.235,0.312 m 32.504,0.162 c -2.529,1.109 -4.245,2.815 -5.19,5.159 l -0.518,1.283 0,17.014 0,17.014 0.627,1.481 c 3.058,7.227 14.006,7.47 17.359,0.385 l 0.675,-1.427 0,-10.252 c 0,-8.109 -0.059,-10.312 -0.285,-10.538 -0.207,-0.208 -1.372,-0.304 -4.295,-0.354 -5.259,-0.089 -5.022,-0.253 -4.985,3.45 0.031,3.086 0.108,3.31 1.38,4.012 1.216,0.67 1.305,1.18 1.223,6.996 -0.071,5.044 -0.178,5.448 -1.56,5.905 -0.814,0.268 -1.693,0.054 -2.399,-0.585 -0.454,-0.411 -0.609,-31.065 -0.162,-31.901 0.284,-0.53 1.676,-0.912 2.51,-0.689 1.209,0.323 1.509,1.053 1.613,3.931 0.125,3.441 0.033,3.351 3.433,3.351 3.873,0 3.691,0.226 3.6,-4.47 -0.103,-5.303 -1.257,-7.549 -4.826,-9.394 -1.895,-0.98 -6.351,-1.182 -8.2,-0.371 m 18.426,0.297 c -0.542,1.298 -0.362,46.256 0.188,46.806 0.357,0.357 1.022,0.398 7.464,0.461 10.484,0.101 10.08,0.216 10.216,-2.889 0.189,-4.33 0.21,-4.315 -6.092,-4.315 -5.397,0 -4.845,0.751 -4.845,-6.586 0,-7.225 -0.358,-6.585 3.685,-6.589 4.286,-0.005 4.219,0.057 4.219,-3.885 0,-3.721 0.163,-3.576 -4.03,-3.576 -2.311,0 -3.429,-0.082 -3.61,-0.264 -0.326,-0.325 -0.372,-11.739 -0.049,-12.25 0.17,-0.27 1.055,-0.349 4.93,-0.439 6.017,-0.14 5.722,0.054 5.722,-3.758 0,-3.811 0.861,-3.487 -9.256,-3.487 l -8.219,0 -0.323,0.771 m 34.961,-0.449 c -0.587,0.587 -0.61,1.637 -0.543,24.507 0.054,18.511 0.117,22.366 0.367,22.668 0.265,0.319 0.951,0.363 5.775,0.363 l 5.473,0 1.567,-0.667 c 4.832,-2.056 5.654,-3.988 5.654,-13.285 0,-6.973 -0.175,-8.176 -1.344,-9.234 -1.138,-1.029 -1.177,-1.545 -0.202,-2.652 1.414,-1.606 1.546,-2.365 1.546,-8.866 0,-8.231 -0.924,-10.445 -5.189,-12.443 -1.617,-0.757 -12.415,-1.08 -13.104,-0.391 m 30.312,-0.048 c -0.46,0.353 -1.185,3.235 -1.595,6.34 -0.176,1.338 -0.416,2.792 -0.533,3.233 -0.116,0.44 -0.416,2.134 -0.665,3.764 -0.249,1.631 -0.555,3.606 -0.679,4.391 -0.125,0.785 -0.525,3.304 -0.889,5.599 -0.364,2.294 -0.805,5.01 -0.98,6.037 -0.176,1.026 -0.518,3.2 -0.761,4.83 -0.243,1.63 -0.533,3.309 -0.645,3.732 -0.112,0.422 -0.311,1.657 -0.443,2.744 -0.132,1.087 -0.384,2.534 -0.559,3.215 -0.876,3.406 -0.457,3.916 3.216,3.919 3.4,0.002 3.714,-0.352 4.134,-4.674 0.35,-3.599 0.551,-3.765 4.396,-3.634 3.078,0.106 3.079,0.106 3.344,3.03 0.26,2.876 0.787,4.632 1.504,5.013 0.754,0.401 5.507,0.261 6.035,-0.178 0.408,-0.338 0.338,-2.613 -0.129,-4.19 -0.121,-0.409 -0.407,-2.029 -0.634,-3.599 -0.228,-1.569 -0.577,-3.842 -0.776,-5.049 -0.515,-3.117 -1.6,-9.858 -1.838,-11.416 -0.368,-2.413 -0.915,-5.682 -1.361,-8.123 -0.242,-1.328 -0.534,-3.183 -0.648,-4.121 -0.115,-0.938 -0.353,-2.222 -0.53,-2.854 -0.178,-0.631 -0.427,-2.047 -0.554,-3.145 -0.574,-4.94 -0.759,-5.138 -4.805,-5.138 -2.259,0 -3.355,0.084 -3.605,0.274 m 19.577,0.076 c -0.538,0.648 -0.46,46.687 0.08,47.227 0.502,0.502 5.862,0.592 6.348,0.107 0.217,-0.217 0.315,-1.999 0.408,-7.464 0.068,-3.949 0.142,-7.204 0.165,-7.234 0.187,-0.247 0.491,0.081 0.712,0.768 0.146,0.453 0.346,0.926 0.445,1.052 0.099,0.126 0.873,2.349 1.72,4.94 2.942,8.995 2.409,8.15 5.222,8.274 5.186,0.227 5.229,1.55 -0.504,-15.344 -0.273,-0.804 -0.64,-1.743 -0.816,-2.086 -0.985,-1.924 -0.74,-2.645 1.473,-4.324 2.546,-1.932 2.987,-3.719 2.984,-12.097 -0.004,-9.404 -0.657,-11.14 -5.047,-13.429 l -1.208,-0.63 -5.835,-0.068 c -5.29,-0.061 -5.864,-0.033 -6.147,0.308 m -173.739,7.214 c 0.449,0.187 0.852,0.554 0.981,0.892 0.296,0.78 0.296,30.387 0,31.167 -0.483,1.27 -2.42,1.479 -3.569,0.386 l -0.604,-0.574 0,-15.447 0,-15.447 0.567,-0.525 c 0.491,-0.455 0.783,-0.583 1.69,-0.741 0.095,-0.017 0.515,0.113 0.935,0.289 m 133.794,0.065 c 1.006,0.507 1.057,0.765 1.081,5.543 0.029,5.678 -0.16,6.147 -2.467,6.147 -1.912,0 -1.901,0.035 -1.897,-5.885 0.002,-2.86 0.076,-5.308 0.164,-5.44 0.536,-0.791 1.946,-0.956 3.119,-0.365 m 50.251,0.219 0.579,0.432 0.058,5.855 0.059,5.856 -0.543,0.542 c -0.675,0.675 -3.263,0.819 -3.503,0.196 -0.448,-1.168 -0.128,-12.804 0.361,-13.157 0.637,-0.461 2.195,-0.317 2.989,0.276 m -25.778,12.855 c 0.729,2.573 1.662,10.995 1.263,11.394 -0.373,0.373 -2.736,0.497 -3.337,0.175 -0.598,-0.32 -0.534,-2.463 0.205,-6.855 0.229,-1.361 0.484,-3.061 0.566,-3.778 0.295,-2.573 0.748,-2.898 1.303,-0.936 m -24.48,6.623 c 0.984,0.509 1.111,1.262 1.111,6.593 0,6.315 -0.15,6.701 -2.611,6.735 -1.792,0.025 -1.78,0.072 -1.78,-6.727 0,-6.112 0.047,-6.474 0.878,-6.771 0.642,-0.23 1.787,-0.148 2.402,0.17"
     id="path0" />
</svg>
